<?xml version="1.0" encoding="UTF-8"?>
<svg id="Layer_1" data-name="Layer 1" xmlns="http://www.w3.org/2000/svg" width="1920" height="483.72" viewBox="0 0 1920 483.72">
  <path d="m890.45,19.48h-234.4v454.51h70.12v-170.12h164.27c98.04,0,160.38-53.89,160.38-141.55s-63.63-142.84-160.38-142.84Zm-3.25,221.41h-161.02V82.46h161.02c62.98,0,93.5,25.32,93.5,79.21s-31.17,79.21-93.5,79.21Z"/>
  <rect x="1087.73" y="129.86" width="66.88" height="344.13"/>
  <rect x="1083.18" width="73.37" height="70.12"/>
  <rect x="1216.68" width="66.88" height="473.99"/>
  <path d="m1498.41,120.12c-43.5,0-80.51,11.04-110.38,32.46-30.52,21.43-48.7,50.64-55.19,86.36l63.63,13.63c9.74-46.75,48.05-75.32,102.59-75.32,47.4,0,78.56,18.83,78.56,48.05,0,23.37-23.38,35.71-93.5,46.75-109.08,16.23-151.28,47.4-151.28,109.08s48.7,102.59,127.26,102.59c53.89,0,101.29-19.48,124.02-51.29h1.3v41.55h62.98v-234.4c0-73.37-58.44-119.47-149.98-119.47Zm84.41,231.15c0,39.61-51.95,74.02-110.38,74.02-51.3,0-74.02-14.29-74.02-46.1,0-28.57,27.27-44.15,97.39-56.49,54.54-9.74,77.27-18.83,85.71-34.41h1.3v62.98Z"/>
  <path d="m1865.46,124.02c-37.01,0-69.48,14.93-92.2,38.96h-1.3v-33.11h-62.98v344.13h66.88v-188.95c0-62.98,31.81-98.04,81.81-98.04,16.23,0,27.27,1.95,48.05,7.14l14.28-62.33c-19.48-5.19-37.66-7.79-54.54-7.79Z"/>
  <path d="m131.21,19.46L0,246.72l131.21,227.26h262.42l131.21-227.26L393.63,19.46H131.21Zm217.22,425.68L47.58,271.45,391.25,73.03l-42.82,372.11Z"/>
</svg>
